<svg xmlns="http://www.w3.org/2000/svg" width="78" height="52" fill="none">
  <g clip-path="url(#a)">
    <path fill="#475A77" d="M19.87 35.73 16.58 3.81h.68L6.06 35.28c0 .19.15.36.46.53.31.17.69.29 1.14.36.46.07.91.11 1.36.11h.6l-.44 2.99H0l.44-2.99h.2c.64 0 1.18-.12 1.63-.36.44-.24.82-.82 1.14-1.74L15.73 0h5.3l3.77 34.52"/>
    <path fill="#7DA1C4" d="M13.54 21.22H35l-.59 3.13-22.6 26.15-.59-2.07h11.32c.87 0 1.63-.02 2.28-.06.65-.04 1.19-.13 1.63-.27.44-.14.78-.33 1.03-.57.25-.24.44-.54.55-.91l1.31-4.6h2.87l-1.56 9.21H7.63l.59-3.29 22.05-25.47.72 1.56h-9.76c-.82 0-1.54.02-2.15.06-.62.04-4.89-.06-5.32.08"/>
    <path fill="#475A77" d="M25.65 19.38v-6.545h.972v1.022h.085c.137-.35.357-.62.66-.814.305-.196.67-.294 1.096-.294.432 0 .791.098 1.078.294.29.194.516.465.678.814h.068c.167-.338.419-.606.754-.805.335-.202.737-.303 1.206-.303.585 0 1.064.184 1.436.55.372.364.558.93.558 1.7v4.381h-1.005V15c0-.484-.132-.829-.397-1.036a1.467 1.467 0 0 0-.933-.311c-.46 0-.817.139-1.07.417-.252.276-.379.625-.379 1.049v4.261h-1.023v-4.483c0-.372-.12-.672-.362-.9-.241-.23-.552-.344-.933-.344-.261 0-.506.07-.733.208-.224.14-.406.333-.545.58a1.71 1.71 0 0 0-.205.848v4.091H25.65Zm12.356.153a2.66 2.66 0 0 1-1.129-.234 1.938 1.938 0 0 1-.805-.686c-.2-.301-.299-.665-.299-1.09 0-.376.074-.68.222-.913.148-.236.345-.42.592-.554.247-.133.52-.233.818-.298.301-.068.604-.122.908-.162.398-.051.72-.09.967-.115.25-.029.432-.075.546-.14.116-.066.175-.18.175-.342v-.034c0-.42-.115-.747-.346-.98-.227-.233-.572-.35-1.035-.35-.48 0-.857.106-1.13.316-.272.21-.464.435-.575.673l-.954-.34c.17-.398.398-.708.682-.93.287-.224.6-.38.937-.468.341-.091.676-.137 1.006-.137.21 0 .452.026.724.077.276.048.541.15.797.303.259.153.473.385.644.694.17.31.255.725.255 1.245v4.312h-1.005v-.886h-.052a1.767 1.767 0 0 1-.34.456c-.16.162-.371.3-.635.413-.265.114-.587.17-.968.17Zm.154-.903c.397 0 .733-.078 1.005-.234a1.595 1.595 0 0 0 .836-1.385v-.92c-.043.05-.137.097-.282.14-.142.04-.306.075-.494.106a22.373 22.373 0 0 1-.963.128c-.261.034-.506.09-.733.166a1.264 1.264 0 0 0-.546.337c-.136.148-.204.35-.204.605 0 .35.13.614.388.793.261.176.592.264.993.264Zm5.688-3.187v3.937h-1.006v-6.545h.971v1.022h.086c.153-.332.386-.6.698-.8.313-.205.716-.308 1.21-.308.444 0 .832.091 1.164.273.333.179.591.452.776.818.184.364.277.824.277 1.38v4.16h-1.006v-4.09c0-.515-.133-.916-.4-1.203-.268-.29-.634-.434-1.1-.434-.321 0-.608.07-.86.208-.25.14-.448.343-.593.61-.145.267-.218.59-.218.972Zm8.485 4.073a2.562 2.562 0 0 1-1.445-.413c-.417-.278-.744-.67-.98-1.176-.236-.509-.353-1.11-.353-1.803 0-.687.117-1.284.353-1.79.236-.505.564-.896.985-1.171.42-.276.906-.414 1.457-.414.426 0 .763.071 1.01.213.25.14.44.299.571.478.134.176.237.32.311.434h.085v-3.221h1.006v8.727h-.972v-1.006h-.119c-.074.12-.179.27-.315.452-.137.179-.331.34-.584.482-.253.139-.59.208-1.01.208Zm.136-.903c.404 0 .745-.105 1.023-.315.279-.213.49-.507.635-.882.145-.378.217-.814.217-1.309 0-.488-.07-.916-.213-1.282a1.868 1.868 0 0 0-.63-.861c-.279-.208-.623-.311-1.032-.311-.426 0-.78.11-1.065.328-.281.216-.493.51-.635.882-.14.37-.209.784-.209 1.244 0 .466.071.89.213 1.27.145.378.358.68.64.904.284.221.636.332 1.056.332Zm6.772.92c-.415 0-.792-.078-1.13-.234a1.937 1.937 0 0 1-.805-.686c-.199-.301-.298-.665-.298-1.09 0-.376.073-.68.221-.913.148-.236.345-.42.593-.554.247-.133.52-.233.818-.298.3-.068.603-.122.907-.162.398-.051.72-.09.968-.115.25-.029.432-.075.545-.14.117-.066.175-.18.175-.342v-.034c0-.42-.115-.747-.345-.98-.227-.233-.573-.35-1.036-.35-.48 0-.856.106-1.129.316-.273.21-.465.435-.575.673l-.955-.34c.17-.398.398-.708.682-.93.287-.224.6-.38.938-.468.34-.091.676-.137 1.005-.137.21 0 .452.026.725.077.275.048.54.15.797.303.258.153.473.385.643.694.17.31.256.725.256 1.245v4.312h-1.006v-.886h-.051a1.77 1.77 0 0 1-.341.456c-.16.162-.37.3-.635.413-.264.114-.587.17-.967.17Zm.153-.903c.398 0 .733-.078 1.006-.234a1.595 1.595 0 0 0 .835-1.385v-.92c-.043.05-.136.097-.281.14-.142.04-.307.075-.495.106a22.444 22.444 0 0 1-.963.128c-.261.034-.505.09-.733.166a1.263 1.263 0 0 0-.545.337c-.137.148-.205.35-.205.605 0 .35.13.614.388.793.261.176.592.264.993.264Z"/>
    <path fill="#7DA1C4" d="M32.976 36.672v3.938h-1.005v-8.727h1.005v3.204h.085a1.85 1.85 0 0 1 .69-.805c.31-.202.722-.303 1.236-.303.447 0 .837.09 1.172.269.336.176.596.447.78.814.188.363.282.826.282 1.389v4.159h-1.006v-4.09c0-.52-.135-.923-.405-1.207-.267-.287-.638-.43-1.112-.43-.33 0-.625.07-.887.209-.258.139-.463.342-.613.609-.148.267-.222.59-.222.971Zm8.01 4.091a2.66 2.66 0 0 1-1.129-.234 1.939 1.939 0 0 1-.805-.686c-.199-.301-.298-.665-.298-1.091 0-.375.073-.679.221-.912.148-.236.345-.42.592-.554.248-.133.52-.233.819-.298.3-.068.603-.122.907-.162.398-.051.72-.09.968-.115.25-.029.431-.075.545-.14.117-.066.175-.18.175-.342v-.034c0-.42-.115-.747-.345-.98-.228-.233-.573-.35-1.036-.35-.48 0-.856.106-1.13.316-.272.21-.464.435-.574.673l-.955-.34c.17-.398.398-.708.682-.93.287-.224.6-.38.937-.468.341-.091.676-.137 1.006-.137.21 0 .452.026.724.077.276.048.542.15.797.303.259.153.473.384.644.694.17.31.255.725.255 1.245v4.312h-1.005v-.886h-.051a1.772 1.772 0 0 1-.341.456c-.16.162-.371.3-.635.413-.264.114-.587.17-.968.17Zm.154-.903c.398 0 .733-.078 1.006-.234a1.595 1.595 0 0 0 .835-1.385v-.92c-.043.05-.137.097-.281.14-.143.04-.307.075-.495.106a22.809 22.809 0 0 1-.963.128c-.261.034-.505.09-.733.166a1.264 1.264 0 0 0-.545.337c-.137.148-.205.35-.205.605 0 .35.13.614.388.793.261.176.592.264.993.264Zm5.688-3.188v3.938h-1.006v-6.545h.972v1.022h.085c.153-.332.386-.6.699-.8.312-.205.716-.308 1.21-.308.443 0 .83.091 1.163.273.333.179.591.452.776.818.185.364.277.824.277 1.38v4.16h-1.006v-4.09c0-.515-.133-.916-.4-1.203-.267-.29-.634-.434-1.1-.434-.32 0-.608.07-.86.209-.25.139-.448.342-.593.609-.145.267-.217.59-.217.971Zm8.656 6.529c-.486 0-.904-.063-1.253-.188a2.66 2.66 0 0 1-.874-.485 2.659 2.659 0 0 1-.55-.64l.802-.562c.09.12.206.256.345.409.139.156.33.291.57.405.245.116.565.175.96.175.528 0 .964-.128 1.308-.384.344-.256.515-.656.515-1.202V39.4h-.085c-.074.12-.179.268-.315.444a1.787 1.787 0 0 1-.58.464c-.25.134-.588.2-1.014.2a2.731 2.731 0 0 1-1.423-.374 2.63 2.63 0 0 1-.993-1.091c-.241-.477-.362-1.057-.362-1.739 0-.67.118-1.254.354-1.751.235-.5.563-.887.984-1.16.42-.275.906-.413 1.457-.413.426 0 .764.071 1.014.213.253.14.447.299.58.478.136.176.242.32.315.434h.103v-1.04h.971v6.733c0 .563-.128 1.02-.383 1.373a2.184 2.184 0 0 1-1.023.78c-.426.167-.9.25-1.423.25Zm-.034-3.597c.403 0 .744-.092 1.022-.277.279-.184.49-.45.635-.797.145-.346.218-.76.218-1.244 0-.471-.072-.888-.214-1.248a1.874 1.874 0 0 0-.63-.848c-.279-.205-.622-.307-1.031-.307-.427 0-.782.108-1.066.324a1.972 1.972 0 0 0-.635.869 3.36 3.36 0 0 0-.209 1.21c0 .455.072.857.214 1.206.144.347.358.62.639.818.284.196.636.294 1.057.294Z"/>
  </g>
  <defs>
    <clipPath id="a">
      <path fill="#fff" d="M0 0h77.94v51.21H0z"/>
    </clipPath>
  </defs>
</svg>
